<mxfile host="app.diagrams.net" modified="2024-04-15T19:51:39.614Z" agent="Mozilla/5.0 (X11; Linux x86_64) AppleWebKit/537.36 (KHTML, like Gecko) Chrome/123.0.0.0 Safari/537.36" etag="jTUh6MMpjMBOuRM0dbkx" version="24.2.5" type="device">
  <diagram name="PÃ¡gina-1" id="fHiuqfXU5xMIA6mQ2Ts-">
    <mxGraphModel dx="611" dy="360" grid="1" gridSize="10" guides="1" tooltips="1" connect="1" arrows="1" fold="1" page="1" pageScale="1" pageWidth="827" pageHeight="1169" math="0" shadow="0">
      <root>
        <mxCell id="0" />
        <mxCell id="1" parent="0" />
        <mxCell id="zoTgAEndzb7mLq4rVf2--10" style="edgeStyle=orthogonalEdgeStyle;rounded=0;orthogonalLoop=1;jettySize=auto;html=1;entryX=0.42;entryY=-0.069;entryDx=0;entryDy=0;entryPerimeter=0;" parent="1" source="zoTgAEndzb7mLq4rVf2--1" target="zoTgAEndzb7mLq4rVf2--2" edge="1">
          <mxGeometry relative="1" as="geometry" />
        </mxCell>
        <mxCell id="zoTgAEndzb7mLq4rVf2--15" style="edgeStyle=orthogonalEdgeStyle;rounded=0;orthogonalLoop=1;jettySize=auto;html=1;" parent="1" source="zoTgAEndzb7mLq4rVf2--1" target="zoTgAEndzb7mLq4rVf2--14" edge="1">
          <mxGeometry relative="1" as="geometry" />
        </mxCell>
        <mxCell id="zoTgAEndzb7mLq4rVf2--1" value="Im seg" style="rounded=1;whiteSpace=wrap;html=1;" parent="1" vertex="1">
          <mxGeometry x="100" y="120" width="120" height="60" as="geometry" />
        </mxCell>
        <mxCell id="zoTgAEndzb7mLq4rVf2--4" style="edgeStyle=orthogonalEdgeStyle;rounded=0;orthogonalLoop=1;jettySize=auto;html=1;" parent="1" source="zoTgAEndzb7mLq4rVf2--2" target="zoTgAEndzb7mLq4rVf2--3" edge="1">
          <mxGeometry relative="1" as="geometry" />
        </mxCell>
        <mxCell id="zoTgAEndzb7mLq4rVf2--2" value="Mask&lt;div&gt;Sp selecionado 1&lt;br&gt;Resto 0&lt;/div&gt;" style="rounded=1;whiteSpace=wrap;html=1;" parent="1" vertex="1">
          <mxGeometry x="110" y="240" width="120" height="60" as="geometry" />
        </mxCell>
        <mxCell id="zoTgAEndzb7mLq4rVf2--9" style="edgeStyle=orthogonalEdgeStyle;rounded=0;orthogonalLoop=1;jettySize=auto;html=1;entryX=0.5;entryY=1;entryDx=0;entryDy=0;" parent="1" source="zoTgAEndzb7mLq4rVf2--3" target="zoTgAEndzb7mLq4rVf2--5" edge="1">
          <mxGeometry relative="1" as="geometry" />
        </mxCell>
        <mxCell id="zoTgAEndzb7mLq4rVf2--3" value="mask" style="ellipse;whiteSpace=wrap;html=1;" parent="1" vertex="1">
          <mxGeometry x="280" y="230" width="120" height="80" as="geometry" />
        </mxCell>
        <mxCell id="zoTgAEndzb7mLq4rVf2--12" value="" style="edgeStyle=orthogonalEdgeStyle;rounded=0;orthogonalLoop=1;jettySize=auto;html=1;" parent="1" source="zoTgAEndzb7mLq4rVf2--5" target="zoTgAEndzb7mLq4rVf2--11" edge="1">
          <mxGeometry relative="1" as="geometry" />
        </mxCell>
        <mxCell id="zoTgAEndzb7mLq4rVf2--5" value="SICLE" style="rhombus;whiteSpace=wrap;html=1;" parent="1" vertex="1">
          <mxGeometry x="630" y="120" width="80" height="80" as="geometry" />
        </mxCell>
        <mxCell id="zoTgAEndzb7mLq4rVf2--13" style="edgeStyle=orthogonalEdgeStyle;rounded=0;orthogonalLoop=1;jettySize=auto;html=1;" parent="1" source="zoTgAEndzb7mLq4rVf2--7" target="zoTgAEndzb7mLq4rVf2--1" edge="1">
          <mxGeometry relative="1" as="geometry" />
        </mxCell>
        <mxCell id="zoTgAEndzb7mLq4rVf2--7" value="im" style="rounded=1;whiteSpace=wrap;html=1;" parent="1" vertex="1">
          <mxGeometry x="100" y="20" width="120" height="60" as="geometry" />
        </mxCell>
        <mxCell id="zoTgAEndzb7mLq4rVf2--16" style="edgeStyle=orthogonalEdgeStyle;rounded=0;orthogonalLoop=1;jettySize=auto;html=1;entryX=1;entryY=0.5;entryDx=0;entryDy=0;" parent="1" source="zoTgAEndzb7mLq4rVf2--11" target="zoTgAEndzb7mLq4rVf2--14" edge="1">
          <mxGeometry relative="1" as="geometry" />
        </mxCell>
        <mxCell id="zoTgAEndzb7mLq4rVf2--11" value="&lt;br&gt;NF 2" style="rounded=1;whiteSpace=wrap;html=1;" parent="1" vertex="1">
          <mxGeometry x="470" y="130" width="120" height="60" as="geometry" />
        </mxCell>
        <mxCell id="zoTgAEndzb7mLq4rVf2--14" value="Rerotulagem" style="whiteSpace=wrap;html=1;aspect=fixed;" parent="1" vertex="1">
          <mxGeometry x="320" y="70" width="80" height="80" as="geometry" />
        </mxCell>
      </root>
    </mxGraphModel>
  </diagram>
</mxfile>
